<?xml version="1.0" standalone="no"?>
<!DOCTYPE svg PUBLIC "-//W3C//DTD SVG 20010904//EN"
 "http://www.w3.org/TR/2001/REC-SVG-20010904/DTD/svg10.dtd">
<svg version="1.0" xmlns="http://www.w3.org/2000/svg"
 width="500.000000pt" height="500.000000pt" viewBox="0 0 500.000000 500.000000"
 preserveAspectRatio="xMidYMid meet">

<g transform="translate(0.000000,500.000000) scale(0.100000,-0.100000)"
fill="#000000" stroke="none">
<path d="M2502 3793 c2 -70 2 -72 5 -20 3 41 7 56 16 50 7 -4 6 0 -2 10 -8 10
-11 21 -7 25 4 4 15 -2 23 -13 14 -17 15 -18 9 -2 -3 10 -6 21 -6 23 0 2 -9 4
-20 4 -18 0 -20 -6 -18 -77z"/>
<path d="M2610 3840 c-6 -11 -8 -20 -6 -20 3 0 10 9 16 20 6 11 8 20 6 20 -3
0 -10 -9 -16 -20z"/>
<path d="M2642 3830 c0 -19 2 -27 5 -17 2 9 2 25 0 35 -3 9 -5 1 -5 -18z"/>
<path d="M2240 3832 c-18 -14 -19 -19 -7 -19 9 0 18 6 21 14 7 16 38 17 54 1
7 -7 12 -8 12 -4 0 5 6 5 13 0 7 -5 4 -1 -6 9 -25 22 -59 22 -87 -1z"/>
<path d="M2820 3820 c0 -6 5 -8 10 -5 6 3 10 2 10 -4 0 -6 7 -8 15 -5 8 4 22
1 30 -6 9 -7 18 -10 21 -7 7 7 -22 22 -58 31 -18 4 -28 2 -28 -4z"/>
<path d="M2530 3805 c0 -5 5 -17 10 -25 5 -8 10 -10 10 -5 0 6 -5 17 -10 25
-5 8 -10 11 -10 5z"/>
<path d="M2586 3793 c-6 -15 -9 -15 -17 -3 -9 12 -10 12 -5 -3 3 -10 6 -24 6
-30 1 -7 8 1 16 16 9 16 14 31 11 33 -2 3 -8 -3 -11 -13z"/>
<path d="M2352 3775 c0 -16 2 -22 5 -12 2 9 2 23 0 30 -3 6 -5 -1 -5 -18z"/>
<path d="M2030 3786 c0 -2 9 -6 20 -9 11 -3 18 -1 14 4 -5 9 -34 13 -34 5z"/>
<path d="M2211 3774 c0 -11 3 -14 6 -6 3 7 2 16 -1 19 -3 4 -6 -2 -5 -13z"/>
<path d="M2330 3752 c0 -15 -6 -34 -12 -42 -7 -8 -4 -7 8 3 15 12 20 25 16 42
-6 33 -12 32 -12 -3z"/>
<path d="M1980 3750 c-6 -12 -9 -24 -7 -27 3 -2 11 5 17 17 6 12 9 24 7 27 -3
2 -11 -5 -17 -17z"/>
<path d="M2241 3754 c0 -11 3 -14 6 -6 3 7 2 16 -1 19 -3 4 -6 -2 -5 -13z"/>
<path d="M2868 3748 c-15 -15 -15 -18 -3 -18 8 0 15 5 15 11 0 5 4 8 9 4 5 -3
13 0 17 6 4 7 3 9 -4 5 -5 -3 -12 -3 -14 2 -1 4 -11 0 -20 -10z"/>
<path d="M2550 3755 c0 -5 5 -17 10 -25 5 -8 10 -10 10 -5 0 6 -5 17 -10 25
-5 8 -10 11 -10 5z"/>
<path d="M2609 3738 c-5 -23 -3 -28 12 -28 11 0 19 5 19 11 0 5 -4 8 -9 4 -5
-3 -11 5 -13 17 -3 21 -4 21 -9 -4z"/>
<path d="M2243 3718 c24 -22 44 -24 27 -3 -7 9 -15 13 -18 10 -3 -3 -10 -1
-17 3 -6 4 -2 -1 8 -10z"/>
<path d="M3100 3723 c0 -5 -23 -32 -50 -60 -27 -29 -47 -53 -44 -53 10 0 53
37 49 42 -7 7 43 52 60 54 8 1 15 -5 16 -14 0 -11 2 -13 6 -4 3 7 -1 19 -7 27
-13 16 -30 20 -30 8z"/>
<path d="M2802 3695 c-11 -12 -10 -15 3 -15 8 0 15 7 15 15 0 18 -2 18 -18 0z"/>
<path d="M2096 3663 c-6 -14 -5 -15 5 -6 7 7 10 15 7 18 -3 3 -9 -2 -12 -12z"/>
<path d="M1990 3657 c8 -9 29 -18 45 -22 29 -5 30 -5 5 6 -14 7 -27 13 -30 13
-3 1 -12 5 -20 10 -13 8 -13 7 0 -7z"/>
<path d="M3099 3638 c-8 -26 -1 -72 12 -78 13 -7 15 -1 16 38 0 40 0 41 -4 10
-2 -21 -8 -38 -12 -38 -4 0 -5 16 -3 35 2 19 1 35 -2 35 -3 0 -6 -1 -7 -2z"/>
<path d="M3326 3593 c7 -4 14 -17 17 -28 5 -16 5 -15 4 4 -1 14 -9 26 -17 28
-10 3 -11 2 -4 -4z"/>
<path d="M1668 3583 c7 -3 16 -2 19 1 4 3 -2 6 -13 5 -11 0 -14 -3 -6 -6z"/>
<path d="M3286 3546 c-14 -19 -33 -41 -41 -49 -8 -9 -12 -18 -8 -20 5 -3 24
17 43 44 l35 49 6 -53 6 -52 1 52 c1 28 -2 54 -7 57 -5 3 -20 -10 -35 -28z"/>
<path d="M1630 3543 c0 -30 20 -43 67 -43 36 0 43 -3 43 -19 0 -12 -11 -23
-27 -29 -16 -6 -21 -11 -13 -11 41 -2 81 65 50 84 -5 3 -7 0 -5 -7 4 -11 -6
-12 -46 -8 -64 6 -77 26 -17 24 36 -1 37 0 8 3 -19 3 -40 9 -47 15 -10 8 -13
6 -13 -9z"/>
<path d="M3391 3517 c-13 -21 -12 -21 5 -5 10 10 16 20 13 22 -3 3 -11 -5 -18
-17z"/>
<path d="M3354 3468 l-19 -23 23 19 c21 18 27 26 19 26 -2 0 -12 -10 -23 -22z"/>
<path d="M3320 3429 c0 -5 5 -7 10 -4 6 3 10 8 10 11 0 2 -4 4 -10 4 -5 0 -10
-5 -10 -11z"/>
<path d="M1465 3410 c-3 -5 0 -7 9 -4 8 3 25 0 38 -6 22 -11 22 -10 4 4 -23
18 -42 20 -51 6z"/>
<path d="M1561 3393 c7 -12 15 -20 18 -17 3 2 -3 12 -13 22 -17 16 -18 16 -5
-5z"/>
<path d="M3514 3388 l-19 -23 23 19 c12 11 22 21 22 23 0 8 -8 2 -26 -19z"/>
<path d="M1437 3370 c-3 -13 -4 -26 -2 -29 3 -2 5 1 5 7 0 7 12 0 28 -16 15
-15 19 -19 10 -7 -9 11 -21 31 -26 44 l-9 25 -6 -24z"/>
<path d="M3509 3353 l-34 -38 40 35 c22 19 42 36 44 38 2 1 0 2 -5 2 -6 0 -26
-17 -45 -37z"/>
<path d="M1568 3331 c5 -23 6 -24 13 -6 11 29 11 32 -4 32 -9 0 -12 -9 -9 -26z"/>
<path d="M3443 3331 c-21 -17 -21 -20 -6 -32 13 -11 15 -11 9 -1 -5 8 -1 21
10 33 22 24 16 24 -13 0z"/>
<path d="M1510 3288 c0 -5 9 -8 19 -8 11 0 22 3 24 8 3 4 -6 7 -19 7 -13 0
-24 -3 -24 -7z"/>
<path d="M2802 3268 c-7 -7 -12 -16 -12 -21 0 -6 -20 -32 -45 -58 -25 -26 -45
-56 -45 -67 0 -24 19 -42 45 -41 17 1 16 2 -5 8 -43 12 -38 46 14 98 25 25 46
52 46 59 0 7 8 18 18 23 9 6 12 11 7 11 -6 0 -16 -5 -23 -12z"/>
<path d="M2890 3266 c0 -2 7 -7 16 -10 8 -3 12 -2 9 4 -6 10 -25 14 -25 6z"/>
<path d="M2938 3240 c6 -8 12 -23 13 -34 0 -15 3 -13 10 8 4 17 6 32 4 35 -3
2 -5 -1 -5 -9 0 -10 -3 -10 -17 1 -15 11 -16 11 -5 -1z"/>
<path d="M3016 3225 c24 -39 24 -40 24 -28 0 6 -9 21 -21 34 l-20 24 17 -30z"/>
<path d="M3650 3230 c-12 -8 -10 -10 8 -10 13 0 20 4 17 10 -7 12 -6 12 -25 0z"/>
<path d="M1318 3213 c7 -3 16 -2 19 1 4 3 -2 6 -13 5 -11 0 -14 -3 -6 -6z"/>
<path d="M3562 3169 c-2 -34 20 -69 44 -69 4 0 -1 7 -13 15 -14 10 -23 29 -26
53 l-4 37 -1 -36z"/>
<path d="M3680 3158 c-13 -18 -16 -27 -7 -19 10 8 17 9 17 3 0 -6 -10 -18 -22
-26 -12 -9 -18 -16 -12 -16 16 0 47 37 40 49 -3 5 -1 11 5 13 7 2 10 10 8 17
-3 7 -14 -1 -29 -21z"/>
<path d="M2790 3162 c0 -5 18 -25 39 -46 22 -22 45 -52 52 -68 6 -16 14 -27
16 -24 8 8 -19 50 -63 98 -24 26 -44 44 -44 40z"/>
<path d="M2942 3150 c0 -14 2 -19 5 -12 2 6 2 18 0 25 -3 6 -5 1 -5 -13z"/>
<path d="M1290 3145 c0 -8 4 -15 10 -15 5 0 7 7 4 15 -4 8 -8 15 -10 15 -2 0
-4 -7 -4 -15z"/>
<path d="M3050 3141 c0 -6 4 -13 10 -16 6 -3 7 1 4 9 -7 18 -14 21 -14 7z"/>
<path d="M1307 3099 c12 -12 24 -21 27 -18 2 2 -8 13 -22 23 l-27 19 22 -24z"/>
<path d="M2491 3094 c0 -11 3 -14 6 -6 3 7 2 16 -1 19 -3 4 -6 -2 -5 -13z"/>
<path d="M3040 3089 c-17 -13 -18 -17 -5 -10 33 17 51 31 40 31 -5 0 -21 -10
-35 -21z"/>
<path d="M3108 3098 c6 -6 18 -8 28 -6 14 3 12 5 -9 10 -19 3 -25 2 -19 -4z"/>
<path d="M1358 3093 c6 -3 10 -8 7 -13 -3 -4 4 -6 15 -3 32 9 31 18 -3 19 -18
1 -26 -1 -19 -3z"/>
<path d="M2931 3084 c0 -11 3 -14 6 -6 3 7 2 16 -1 19 -3 4 -6 -2 -5 -13z"/>
<path d="M2785 3060 c10 -11 20 -20 23 -20 3 0 -3 9 -13 20 -10 11 -20 20 -23
20 -3 0 3 -9 13 -20z"/>
<path d="M2482 3040 c0 -19 2 -27 5 -17 2 9 2 25 0 35 -3 9 -5 1 -5 -18z"/>
<path d="M3148 3035 c-25 -34 -22 -43 3 -11 12 15 20 29 18 31 -2 1 -12 -7
-21 -20z"/>
<path d="M2950 3031 c-13 -11 -28 -17 -33 -14 -5 3 -11 -4 -14 -15 -3 -11 -10
-19 -16 -18 -7 2 -8 1 -4 -2 4 -2 2 -11 -5 -20 -10 -14 -10 -15 2 -4 8 6 22
12 33 12 10 0 15 4 12 10 -3 5 9 23 27 39 37 34 36 41 -2 12z"/>
<path d="M2810 3026 c0 -2 8 -10 18 -17 15 -13 16 -12 3 4 -13 16 -21 21 -21
13z"/>
<path d="M2560 2966 c19 -26 39 -50 44 -54 5 -3 -6 16 -24 42 -19 26 -39 50
-44 54 -5 3 6 -16 24 -42z"/>
<path d="M2988 3003 c7 -3 16 -2 19 1 4 3 -2 6 -13 5 -11 0 -14 -3 -6 -6z"/>
<path d="M3728 2981 c-37 -14 -68 -29 -68 -33 0 -4 21 2 46 12 55 24 68 25 60
5 -3 -8 -3 -15 0 -15 2 0 9 12 15 28 6 15 13 22 16 15 2 -7 -1 -22 -7 -35 -11
-22 -10 -22 4 -4 17 21 21 42 9 49 -5 2 -38 -8 -75 -22z"/>
<path d="M3028 2993 c7 -3 16 -2 19 1 4 3 -2 6 -13 5 -11 0 -14 -3 -6 -6z"/>
<path d="M3078 2993 c7 -3 16 -2 19 1 4 3 -2 6 -13 5 -11 0 -14 -3 -6 -6z"/>
<path d="M1220 2983 c8 -3 22 -11 30 -17 13 -10 13 -9 1 7 -7 9 -21 17 -30 16
-13 0 -14 -1 -1 -6z"/>
<path d="M1187 2967 c-3 -8 4 -13 21 -12 18 0 30 -8 39 -25 12 -23 13 -23 13
-4 0 18 -14 29 -61 51 -4 2 -9 -3 -12 -10z"/>
<path d="M2940 2966 c0 -2 8 -10 18 -17 15 -13 16 -12 3 4 -13 16 -21 21 -21
13z"/>
<path d="M3109 2963 c-15 -2 -35 -14 -45 -26 -19 -22 -19 -22 2 -4 11 9 30 17
42 17 11 0 24 5 27 10 3 6 5 9 3 9 -2 -1 -15 -4 -29 -6z"/>
<path d="M2500 2954 c0 -6 7 -19 16 -30 14 -18 14 -18 3 6 -14 31 -19 36 -19
24z"/>
<path d="M2844 2918 l-19 -23 23 19 c12 11 22 21 22 23 0 8 -8 2 -26 -19z"/>
<path d="M2223 2923 c-7 -2 -13 -14 -12 -26 0 -15 2 -17 6 -7 3 8 12 21 21 28
16 12 8 15 -15 5z"/>
<path d="M2257 2899 c7 -7 15 -10 18 -7 3 3 -2 9 -12 12 -14 6 -15 5 -6 -5z"/>
<path d="M3750 2890 c-12 -22 -4 -25 20 -10 11 7 11 10 2 10 -7 0 -10 5 -7 10
3 6 4 10 1 10 -3 0 -10 -9 -16 -20z"/>
<path d="M2060 2879 c-7 -11 -10 -23 -7 -25 2 -2 9 7 15 21 14 30 7 33 -8 4z"/>
<path d="M2530 2896 c0 -2 8 -10 18 -17 15 -13 16 -12 3 4 -13 16 -21 21 -21
13z"/>
<path d="M2627 2865 c9 -19 18 -33 21 -31 4 5 -26 66 -33 66 -3 0 3 -16 12
-35z"/>
<path d="M2303 2883 c9 -2 23 -2 30 0 6 3 -1 5 -18 5 -16 0 -22 -2 -12 -5z"/>
<path d="M2809 2873 c-13 -16 -12 -17 4 -4 16 13 21 21 13 21 -2 0 -10 -8 -17
-17z"/>
<path d="M1296 2863 c-6 -14 -5 -15 5 -6 7 7 10 15 7 18 -3 3 -9 -2 -12 -12z"/>
<path d="M2353 2830 c0 -30 2 -43 4 -27 2 15 2 39 0 55 -2 15 -4 2 -4 -28z"/>
<path d="M3705 2870 c-3 -5 1 -10 10 -10 9 0 13 5 10 10 -3 6 -8 10 -10 10 -2
0 -7 -4 -10 -10z"/>
<path d="M2212 2835 c0 -16 2 -22 5 -12 2 9 2 23 0 30 -3 6 -5 -1 -5 -18z"/>
<path d="M2560 2856 c0 -2 8 -10 18 -17 15 -13 16 -12 3 4 -13 16 -21 21 -21
13z"/>
<path d="M2770 2820 c-12 -16 -19 -30 -16 -30 2 0 14 14 26 30 12 17 19 30 16
30 -2 0 -14 -13 -26 -30z"/>
<path d="M2630 2795 c19 -22 36 -42 38 -44 1 -2 2 6 2 19 0 13 -3 20 -7 17 -4
-4 -20 5 -37 20 -28 25 -28 24 4 -12z"/>
<path d="M2393 2813 c9 -2 23 -2 30 0 6 3 -1 5 -18 5 -16 0 -22 -2 -12 -5z"/>
<path d="M1989 2793 c-13 -17 -13 -17 6 -3 11 8 22 16 24 17 2 2 0 3 -6 3 -6
0 -17 -8 -24 -17z"/>
<path d="M2441 2794 c0 -11 3 -14 6 -6 3 7 2 16 -1 19 -3 4 -6 -2 -5 -13z"/>
<path d="M2090 2753 c13 -18 25 -33 27 -33 8 0 -17 38 -33 51 -11 9 -9 2 6
-18z"/>
<path d="M1970 2752 c0 -10 -7 -29 -16 -42 l-16 -25 21 24 c19 21 29 61 16 61
-3 0 -5 -8 -5 -18z"/>
<path d="M2909 2743 c-12 -16 -12 -17 2 -6 9 7 19 10 22 6 4 -3 7 -1 7 5 0 17
-16 15 -31 -5z"/>
<path d="M2342 2725 c0 -16 2 -22 5 -12 2 9 2 23 0 30 -3 6 -5 -1 -5 -18z"/>
<path d="M2683 2694 c-13 -14 -23 -30 -23 -35 0 -5 -7 -22 -16 -37 l-16 -27
19 24 c21 29 65 101 61 101 -2 0 -13 -12 -25 -26z"/>
<path d="M2988 2693 c26 -5 27 -11 7 -33 -14 -16 -14 -18 0 -24 10 -3 14 -2
10 5 -4 5 -1 16 5 24 16 19 4 35 -23 34 -22 -2 -22 -2 1 -6z"/>
<path d="M2402 2665 c0 -16 2 -22 5 -12 2 9 2 23 0 30 -3 6 -5 -1 -5 -18z"/>
<path d="M2935 2680 c-3 -6 1 -7 9 -4 18 7 21 14 7 14 -6 0 -13 -4 -16 -10z"/>
<path d="M2331 2664 c0 -11 3 -14 6 -6 3 7 2 16 -1 19 -3 4 -6 -2 -5 -13z"/>
<path d="M2148 2655 c6 -11 30 -38 53 -60 43 -39 43 -39 -6 15 -27 30 -51 57
-53 60 -3 3 0 -4 6 -15z"/>
<path d="M2855 2659 c-4 -6 -5 -12 -2 -15 2 -3 7 2 10 11 7 17 1 20 -8 4z"/>
<path d="M2905 2659 c-4 -6 -5 -12 -2 -15 2 -3 7 2 10 11 7 17 1 20 -8 4z"/>
<path d="M1950 2640 c8 -5 24 -10 34 -10 26 0 18 6 -19 14 -22 5 -26 4 -15 -4z"/>
<path d="M2037 2600 c18 -19 34 -32 36 -29 2 2 -12 17 -32 33 l-36 30 32 -34z"/>
<path d="M2381 2593 c-10 -26 -10 -27 4 -9 8 11 15 23 15 28 0 15 -7 8 -19
-19z"/>
<path d="M2466 2612 c-2 -4 -1 -14 5 -22 7 -12 9 -10 9 8 0 23 -5 28 -14 14z"/>
<path d="M2829 2590 c-3 -16 -13 -27 -29 -31 -23 -6 -23 -7 -3 -8 12 -1 24 -9
26 -18 3 -12 5 -9 6 8 0 14 3 28 6 31 3 3 37 -26 75 -64 39 -39 70 -65 70 -59
0 6 6 11 14 11 7 0 20 8 27 18 11 14 11 15 -1 5 -28 -26 -61 -14 -112 37 -27
28 -46 55 -43 60 3 6 0 10 -9 10 -8 0 -16 6 -19 13 -2 6 -6 1 -8 -13z"/>
<path d="M2610 2570 c-6 -11 -8 -20 -6 -20 3 0 10 9 16 20 6 11 8 20 6 20 -3
0 -10 -9 -16 -20z"/>
<path d="M2281 2564 c0 -11 3 -14 6 -6 3 7 2 16 -1 19 -3 4 -6 -2 -5 -13z"/>
<path d="M2129 2550 c24 -11 46 -20 50 -20 12 1 -64 39 -79 39 -8 0 5 -8 29
-19z"/>
<path d="M2253 2553 c4 -7 0 -13 -10 -16 -15 -4 -15 -5 2 -6 17 -1 18 -3 5
-11 -9 -6 -10 -10 -3 -10 6 0 15 5 18 10 3 6 12 10 18 10 7 -1 -8 -19 -33 -42
-32 -28 -35 -34 -13 -19 18 12 35 27 39 32 4 6 16 1 32 -13 22 -18 23 -19 9
-2 -21 26 -21 33 1 51 9 8 11 12 5 8 -7 -3 -13 -1 -13 6 0 8 -4 8 -15 -1 -12
-10 -18 -10 -32 1 -9 8 -14 9 -10 2z"/>
<path d="M2483 2520 c0 -25 2 -35 4 -22 2 12 2 32 0 45 -2 12 -4 2 -4 -23z"/>
<path d="M1921 2534 c0 -11 3 -14 6 -6 3 7 2 16 -1 19 -3 4 -6 -2 -5 -13z"/>
<path d="M2580 2520 c-6 -11 -8 -20 -6 -20 3 0 10 9 16 20 6 11 8 20 6 20 -3
0 -10 -9 -16 -20z"/>
<path d="M2691 2500 c0 -29 1 -32 10 -17 7 11 7 23 0 35 -9 14 -10 11 -10 -18z"/>
<path d="M1941 2497 c9 -7 18 -19 22 -27 4 -10 6 -9 6 6 1 14 -7 24 -21 27
-20 5 -21 4 -7 -6z"/>
<path d="M1988 2503 c6 -2 18 -2 25 0 6 3 1 5 -13 5 -14 0 -19 -2 -12 -5z"/>
<path d="M2841 2493 c7 -12 15 -20 18 -17 3 2 -3 12 -13 22 -17 16 -18 16 -5
-5z"/>
<path d="M2040 2490 c8 -5 20 -10 25 -10 6 0 3 5 -5 10 -8 5 -19 10 -25 10 -5
0 -3 -5 5 -10z"/>
<path d="M2411 2484 c0 -11 3 -14 6 -6 3 7 2 16 -1 19 -3 4 -6 -2 -5 -13z"/>
<path d="M2590 2469 c-28 -20 -41 -26 -37 -15 12 32 -3 15 -24 -26 l-22 -43
29 29 c16 16 46 40 67 54 33 22 44 32 34 32 -2 0 -23 -14 -47 -31z"/>
<path d="M2088 2473 c7 -3 16 -2 19 1 4 3 -2 6 -13 5 -11 0 -14 -3 -6 -6z"/>
<path d="M2345 2436 c10 -14 19 -26 22 -26 7 0 -17 39 -28 46 -6 3 -3 -5 6
-20z"/>
<path d="M2402 2435 c0 -16 2 -22 5 -12 2 9 2 23 0 30 -3 6 -5 -1 -5 -18z"/>
<path d="M2180 2440 c-9 -6 -10 -10 -3 -10 6 0 15 5 18 10 8 12 4 12 -15 0z"/>
<path d="M2721 2434 c0 -11 3 -14 6 -6 3 7 2 16 -1 19 -3 4 -6 -2 -5 -13z"/>
<path d="M2073 2433 c9 -2 23 -2 30 0 6 3 -1 5 -18 5 -16 0 -22 -2 -12 -5z"/>
<path d="M2860 2431 c0 -6 4 -13 10 -16 6 -3 7 1 4 9 -7 18 -14 21 -14 7z"/>
<path d="M2138 2423 c7 -3 16 -2 19 1 4 3 -2 6 -13 5 -11 0 -14 -3 -6 -6z"/>
<path d="M2425 2400 c-15 -16 -32 -27 -36 -24 -5 3 -6 -2 -3 -10 4 -12 0 -16
-17 -17 -20 0 -21 -2 -6 -7 16 -7 16 -9 1 -31 -9 -12 -30 -31 -48 -42 -17 -10
-25 -19 -17 -19 7 0 32 19 55 42 22 23 45 41 49 40 5 -1 7 6 5 17 -2 11 10 33
26 50 17 17 27 31 25 31 -3 0 -18 -13 -34 -30z"/>
<path d="M1958 2403 c6 -2 18 -2 25 0 6 3 1 5 -13 5 -14 0 -19 -2 -12 -5z"/>
<path d="M2890 2390 c8 -5 20 -10 25 -10 6 0 3 5 -5 10 -8 5 -19 10 -25 10 -5
0 -3 -5 5 -10z"/>
<path d="M2680 2381 c0 -6 4 -13 10 -16 6 -3 7 1 4 9 -7 18 -14 21 -14 7z"/>
<path d="M2716 2325 c-3 -9 -6 -24 -5 -33 0 -9 5 -4 10 12 9 32 6 48 -5 21z"/>
<path d="M2238 2304 c-39 -21 -35 -28 5 -8 37 19 44 24 31 24 -5 -1 -21 -8
-36 -16z"/>
<path d="M2180 2270 c-13 -8 -12 -10 3 -10 9 0 17 5 17 10 0 12 -1 12 -20 0z"/>
<path d="M2248 2243 c6 -2 18 -2 25 0 6 3 1 5 -13 5 -14 0 -19 -2 -12 -5z"/>
<path d="M2431 2220 c0 -33 1 -34 10 -11 6 16 6 28 -1 35 -7 7 -10 -1 -9 -24z"/>
<path d="M2536 2230 c4 -8 11 -30 15 -50 7 -35 7 -35 8 -4 0 16 -6 39 -15 50
-8 10 -12 12 -8 4z"/>
<path d="M2523 2180 c0 -25 2 -35 4 -22 2 12 2 32 0 45 -2 12 -4 2 -4 -23z"/>
<path d="M3720 2195 c-19 -22 -8 -25 13 -3 9 10 13 18 8 18 -5 0 -14 -7 -21
-15z"/>
<path d="M1184 2174 c-18 -14 -18 -14 6 -3 31 14 36 19 24 19 -6 0 -19 -7 -30
-16z"/>
<path d="M1270 2175 c7 -8 17 -15 22 -15 6 0 5 7 -2 15 -7 8 -17 15 -22 15 -6
0 -5 -7 2 -15z"/>
<path d="M2421 2164 c0 -11 3 -14 6 -6 3 7 2 16 -1 19 -3 4 -6 -2 -5 -13z"/>
<path d="M3779 2163 c-13 -16 -12 -17 4 -4 16 13 21 21 13 21 -2 0 -10 -8 -17
-17z"/>
<path d="M3835 2170 c3 -5 -1 -10 -9 -10 -28 0 -24 -15 5 -16 24 -1 27 1 18
17 -5 11 -12 19 -15 19 -3 0 -2 -4 1 -10z"/>
<path d="M1185 2150 c-4 -6 -11 -8 -16 -5 -5 4 -9 -2 -9 -11 0 -16 1 -16 20 1
11 10 20 20 20 22 0 7 -9 3 -15 -7z"/>
<path d="M3711 2144 c0 -11 3 -14 6 -6 3 7 2 16 -1 19 -3 4 -6 -2 -5 -13z"/>
<path d="M3740 2140 c-9 -6 -10 -10 -3 -10 6 0 15 5 18 10 8 12 4 12 -15 0z"/>
<path d="M2526 2121 c-10 -11 -16 -26 -14 -34 2 -8 10 0 19 19 19 39 18 41 -5
15z"/>
<path d="M2655 2132 c-6 -4 -10 -14 -10 -22 0 -8 -15 -25 -34 -37 -19 -13 -29
-23 -24 -23 15 0 62 39 74 62 12 22 9 31 -6 20z"/>
<path d="M3766 2125 c-11 -8 -15 -15 -9 -15 6 0 16 7 23 15 16 19 11 19 -14 0z"/>
<path d="M3830 2105 c-7 -9 -8 -15 -2 -15 5 0 12 7 16 15 3 8 4 15 2 15 -2 0
-9 -7 -16 -15z"/>
<path d="M2413 2075 c0 -22 2 -30 4 -17 2 12 2 30 0 40 -3 9 -5 -1 -4 -23z"/>
<path d="M3680 2060 c8 -5 20 -10 25 -10 6 0 3 5 -5 10 -8 5 -19 10 -25 10 -5
0 -3 -5 5 -10z"/>
<path d="M1180 2049 c0 -5 5 -7 10 -4 6 3 10 8 10 11 0 2 -4 4 -10 4 -5 0 -10
-5 -10 -11z"/>
<path d="M2500 2042 c0 -4 16 -6 35 -4 19 2 35 6 35 8 0 2 -16 4 -35 4 -19 0
-35 -4 -35 -8z"/>
<path d="M3670 2040 c8 -5 20 -10 25 -10 6 0 3 5 -5 10 -8 5 -19 10 -25 10 -5
0 -3 -5 5 -10z"/>
<path d="M3727 2039 c7 -7 15 -10 18 -7 3 3 -2 9 -12 12 -14 6 -15 5 -6 -5z"/>
<path d="M3717 2019 c7 -7 15 -10 18 -7 3 3 -2 9 -12 12 -14 6 -15 5 -6 -5z"/>
<path d="M2412 1972 c-2 -47 0 -52 16 -43 9 5 26 20 37 33 l20 23 -26 -22
c-14 -13 -28 -23 -32 -23 -3 0 -8 19 -10 43 -3 40 -4 39 -5 -11z"/>
<path d="M3641 1984 c0 -11 3 -14 6 -6 3 7 2 16 -1 19 -3 4 -6 -2 -5 -13z"/>
<path d="M1215 1970 c-3 -5 -1 -10 4 -10 6 0 11 5 11 10 0 6 -2 10 -4 10 -3 0
-8 -4 -11 -10z"/>
<path d="M1295 1940 c-8 -13 5 -13 25 0 13 8 13 10 -2 10 -9 0 -20 -4 -23 -10z"/>
<path d="M1304 1914 c-18 -14 -18 -14 6 -3 31 14 36 19 24 19 -6 0 -19 -7 -30
-16z"/>
<path d="M2422 1880 c0 -14 2 -19 5 -12 2 6 2 18 0 25 -3 6 -5 1 -5 -13z"/>
<path d="M1408 1883 c7 -3 16 -2 19 1 4 3 -2 6 -13 5 -11 0 -14 -3 -6 -6z"/>
<path d="M3561 1844 c0 -11 3 -14 6 -6 3 7 2 16 -1 19 -3 4 -6 -2 -5 -13z"/>
<path d="M3635 1839 c-4 -6 -5 -12 -2 -15 2 -3 7 2 10 11 7 17 1 20 -8 4z"/>
<path d="M1445 1829 c-6 -8 -4 -10 5 -4 10 6 12 4 6 -11 -6 -15 -5 -17 5 -6 9
9 10 15 2 23 -8 8 -13 7 -18 -2z"/>
<path d="M2441 1784 c0 -11 3 -14 6 -6 3 7 2 16 -1 19 -3 4 -6 -2 -5 -13z"/>
<path d="M3511 1787 c2 -1 15 -11 29 -22 l25 -20 -19 23 c-11 12 -24 22 -29
22 -6 0 -8 -1 -6 -3z"/>
<path d="M1335 1761 c-3 -5 -2 -12 3 -15 5 -3 9 1 9 9 0 17 -3 19 -12 6z"/>
<path d="M2451 1744 c0 -11 3 -14 6 -6 3 7 2 16 -1 19 -3 4 -6 -2 -5 -13z"/>
<path d="M3531 1745 c8 -11 16 -36 18 -54 2 -47 8 -50 13 -6 3 28 -1 40 -21
58 -21 18 -23 18 -10 2z"/>
<path d="M1465 1709 c-37 -39 -37 -40 -8 -19 18 13 34 29 37 37 3 8 10 11 16
8 5 -3 10 -1 10 4 0 20 -16 11 -55 -30z"/>
<path d="M3599 1718 c23 -27 18 -39 -7 -18 -7 5 -5 2 3 -7 10 -12 18 -14 25
-7 7 7 1 18 -17 35 l-28 24 24 -27z"/>
<path d="M2461 1704 c0 -11 3 -14 6 -6 3 7 2 16 -1 19 -3 4 -6 -2 -5 -13z"/>
<path d="M3447 1713 c-10 -9 -9 -23 1 -23 5 0 9 7 9 15 0 17 -1 18 -10 8z"/>
<path d="M1501 1694 c0 -11 3 -14 6 -6 3 7 2 16 -1 19 -3 4 -6 -2 -5 -13z"/>
<path d="M3498 1703 c6 -2 18 -2 25 0 6 3 1 5 -13 5 -14 0 -19 -2 -12 -5z"/>
<path d="M1471 1674 c0 -11 3 -14 6 -6 3 7 2 16 -1 19 -3 4 -6 -2 -5 -13z"/>
<path d="M3503 1683 c9 -2 23 -2 30 0 6 3 -1 5 -18 5 -16 0 -22 -2 -12 -5z"/>
<path d="M1540 1645 c-19 -19 -40 -35 -48 -35 -7 0 -10 -4 -7 -10 3 -5 2 -10
-4 -10 -5 0 -12 10 -14 23 -5 20 -5 20 -4 -2 1 -14 7 -26 12 -27 6 -2 35 19
65 46 30 28 50 50 44 50 -5 0 -25 -16 -44 -35z"/>
<path d="M1491 1654 c0 -11 3 -14 6 -6 3 7 2 16 -1 19 -3 4 -6 -2 -5 -13z"/>
<path d="M3304 1569 c-3 -6 1 -17 10 -25 9 -8 11 -9 6 -2 -19 23 -10 31 13 12
l22 -19 -19 23 c-22 25 -23 26 -32 11z"/>
<path d="M1665 1550 c-3 -6 1 -7 9 -4 18 7 21 14 7 14 -6 0 -13 -4 -16 -10z"/>
<path d="M1735 1530 c10 -11 20 -20 23 -20 3 0 -3 9 -13 20 -10 11 -20 20 -23
20 -3 0 3 -9 13 -20z"/>
<path d="M1620 1489 c-12 -16 -21 -32 -18 -34 2 -2 13 12 26 31 28 42 21 45
-8 3z"/>
<path d="M3375 1500 c10 -11 20 -20 23 -20 3 0 -3 9 -13 20 -10 11 -20 20 -23
20 -3 0 3 -9 13 -20z"/>
<path d="M3340 1506 c0 -2 8 -10 18 -17 15 -13 16 -12 3 4 -13 16 -21 21 -21
13z"/>
<path d="M3196 1491 c-3 -4 1 -17 10 -27 14 -18 14 -17 3 5 -10 21 -9 23 5 18
10 -4 15 -3 11 3 -8 12 -22 13 -29 1z"/>
<path d="M1746 1473 c-6 -14 -5 -15 5 -6 7 7 10 15 7 18 -3 3 -9 -2 -12 -12z"/>
<path d="M3388 1456 c-8 -8 -23 -16 -34 -18 -13 -2 -15 -6 -7 -11 6 -4 24 3
40 18 15 13 25 25 21 25 -4 0 -13 -6 -20 -14z"/>
<path d="M1686 1431 c-18 -20 -14 -41 7 -41 7 0 6 4 -3 10 -12 7 -12 12 4 29
11 12 17 21 14 21 -3 0 -13 -9 -22 -19z"/>
<path d="M1804 1428 c-19 -23 -19 -23 1 -7 11 10 29 19 40 22 19 4 19 5 -1 6
-11 0 -29 -9 -40 -21z"/>
<path d="M1896 1428 c10 -14 21 -24 23 -22 3 3 -6 15 -18 27 l-24 22 19 -27z"/>
<path d="M3110 1440 c-8 -5 -10 -10 -5 -10 6 0 17 5 25 10 8 5 11 10 5 10 -5
0 -17 -5 -25 -10z"/>
<path d="M3216 1423 c-4 -10 -4 -14 0 -10 4 4 14 1 22 -6 13 -10 14 -9 3 11
-14 27 -17 27 -25 5z"/>
<path d="M3185 1400 c-4 -6 -11 -7 -17 -4 -6 4 -6 -2 1 -15 7 -11 14 -21 17
-21 3 0 2 5 -1 10 -4 6 -1 17 5 25 7 8 10 15 7 15 -3 0 -9 -5 -12 -10z"/>
<path d="M1781 1379 c-1 -15 7 -35 17 -46 9 -10 14 -14 10 -8 -3 5 -11 26 -16
45 -9 31 -10 32 -11 9z"/>
<path d="M3020 1390 c0 -5 7 -7 15 -4 8 4 15 8 15 10 0 2 -7 4 -15 4 -8 0 -15
-4 -15 -10z"/>
<path d="M3276 1385 c7 -18 6 -19 -9 -6 -15 12 -17 12 -11 -3 3 -9 10 -16 14
-16 16 0 22 22 11 33 -9 9 -10 7 -5 -8z"/>
<path d="M1921 1374 c0 -11 3 -14 6 -6 3 7 2 16 -1 19 -3 4 -6 -2 -5 -13z"/>
<path d="M2030 1362 c0 -5 7 -9 15 -9 8 0 15 4 15 9 0 4 -7 8 -15 8 -8 0 -15
-4 -15 -8z"/>
<path d="M1857 1325 l-28 -25 25 0 c14 0 28 4 31 10 4 6 -1 7 -12 3 -17 -6
-17 -5 1 15 25 29 18 27 -17 -3z"/>
<path d="M3196 1337 c3 -10 9 -15 12 -12 3 3 0 11 -7 18 -10 9 -11 8 -5 -6z"/>
<path d="M3037 1326 c-4 -10 -3 -15 3 -11 6 3 10 1 10 -6 0 -7 3 -10 6 -6 3 3
2 13 -4 22 -8 16 -9 16 -15 1z"/>
<path d="M2820 1319 c0 -5 5 -7 10 -4 6 3 10 8 10 11 0 2 -4 4 -10 4 -5 0 -10
-5 -10 -11z"/>
<path d="M3070 1325 c0 -5 5 -17 10 -25 5 -8 10 -10 10 -5 0 6 -5 17 -10 25
-5 8 -10 11 -10 5z"/>
<path d="M2796 1305 c4 -8 8 -15 10 -15 2 0 4 7 4 15 0 8 -4 15 -10 15 -5 0
-7 -7 -4 -15z"/>
<path d="M2732 1290 c0 -14 2 -19 5 -12 2 6 2 18 0 25 -3 6 -5 1 -5 -13z"/>
<path d="M2031 1284 c0 -11 3 -14 6 -6 3 7 2 16 -1 19 -3 4 -6 -2 -5 -13z"/>
<path d="M2296 1293 c5 -5 12 -12 15 -16 3 -5 9 -2 12 7 5 12 0 16 -15 16 -12
0 -17 -3 -12 -7z"/>
<path d="M1977 1272 c-15 -10 -24 -21 -21 -24 3 -4 14 2 25 13 11 11 24 17 29
14 6 -4 10 -1 10 4 0 15 -11 13 -43 -7z"/>
<path d="M2371 1273 c0 -11 3 -13 6 -5 2 6 17 12 33 12 24 0 29 -5 33 -27 l4
-28 2 28 c0 16 5 25 11 22 6 -3 10 -1 10 4 0 6 -21 11 -50 11 -41 0 -50 -3
-49 -17z"/>
<path d="M2583 1283 c9 -2 17 -10 17 -16 0 -9 2 -9 8 -1 4 6 14 14 22 17 8 3
-3 5 -25 5 -22 0 -32 -2 -22 -5z"/>
<path d="M2530 1269 c0 -5 5 -7 10 -4 6 3 10 8 10 11 0 2 -4 4 -10 4 -5 0 -10
-5 -10 -11z"/>
<path d="M2711 1264 c0 -11 3 -14 6 -6 3 7 2 16 -1 19 -3 4 -6 -2 -5 -13z"/>
<path d="M3080 1270 c-8 -5 -12 -11 -9 -14 2 -3 11 -1 19 4 8 5 12 11 9 14 -2
3 -11 1 -19 -4z"/>
<path d="M2281 1254 c0 -11 3 -14 6 -6 3 7 2 16 -1 19 -3 4 -6 -2 -5 -13z"/>
<path d="M2802 1255 c-11 -12 -10 -15 3 -15 8 0 15 7 15 15 0 18 -2 18 -18 0z"/>
<path d="M2041 1238 c-1 -12 -7 -16 -18 -12 -16 5 -16 4 0 -6 22 -14 30 -8 24
17 -4 16 -5 16 -6 1z"/>
<path d="M2301 1234 c0 -11 3 -14 6 -6 3 7 2 16 -1 19 -3 4 -6 -2 -5 -13z"/>
<path d="M2463 1215 c0 -22 2 -30 4 -17 2 12 2 30 0 40 -3 9 -5 -1 -4 -23z"/>
<path d="M2740 1235 c0 -9 6 -12 15 -9 8 4 15 7 15 9 0 2 -7 5 -15 9 -9 3 -15
0 -15 -9z"/>
<path d="M3010 1240 c0 -5 5 -10 11 -10 5 0 7 5 4 10 -3 6 -8 10 -11 10 -2 0
-4 -4 -4 -10z"/>
<path d="M2205 1229 c-4 -6 -4 -13 -1 -16 3 -4 6 -1 6 5 0 7 4 12 10 12 5 0 7
-8 3 -17 -7 -19 -5 -18 16 10 12 15 11 17 -7 17 -12 0 -24 -5 -27 -11z"/>
<path d="M2841 1224 c0 -11 3 -14 6 -6 3 7 2 16 -1 19 -3 4 -6 -2 -5 -13z"/>
<path d="M2271 1204 c0 -11 3 -14 6 -6 3 7 2 16 -1 19 -3 4 -6 -2 -5 -13z"/>
<path d="M2560 1210 c0 -5 5 -10 11 -10 5 0 7 5 4 10 -3 6 -8 10 -11 10 -2 0
-4 -4 -4 -10z"/>
<path d="M2821 1204 c0 -11 3 -14 6 -6 3 7 2 16 -1 19 -3 4 -6 -2 -5 -13z"/>
<path d="M2633 1175 c0 -22 2 -30 4 -17 2 12 2 30 0 40 -3 9 -5 -1 -4 -23z"/>
<path d="M2211 1173 c6 -7 15 -13 20 -13 5 0 6 6 3 13 -3 8 -11 14 -19 14 -11
0 -12 -4 -4 -14z"/>
<path d="M2290 1174 c0 -10 -5 -14 -16 -10 -8 3 -12 2 -9 -4 11 -18 35 -11 35
10 0 11 -2 20 -5 20 -3 0 -5 -7 -5 -16z"/>
<path d="M2731 1164 c0 -11 3 -14 6 -6 3 7 2 16 -1 19 -3 4 -6 -2 -5 -13z"/>
<path d="M2540 1152 c0 -12 19 -26 26 -19 2 2 -2 10 -11 17 -9 8 -15 8 -15 2z"/>
</g>
</svg>
